<svg id="visual" viewBox="0 0 960 540" width="960" height="540" xmlns="http://www.w3.org/2000/svg" xmlns:xlink="http://www.w3.org/1999/xlink" version="1.1"><rect x="0" y="0" width="960" height="540" fill="#111111"></rect><path d="M0 221L20 221.3C40 221.7 80 222.3 120 225.5C160 228.7 200 234.3 240 242.2C280 250 320 260 360 250.5C400 241 440 212 480 219.3C520 226.7 560 270.3 600 274.7C640 279 680 244 720 238.5C760 233 800 257 840 255.7C880 254.3 920 227.7 940 214.3L960 201L960 541L940 541C920 541 880 541 840 541C800 541 760 541 720 541C680 541 640 541 600 541C560 541 520 541 480 541C440 541 400 541 360 541C320 541 280 541 240 541C200 541 160 541 120 541C80 541 40 541 20 541L0 541Z" fill="#222222"></path><path d="M0 315L20 314.8C40 314.7 80 314.3 120 309.3C160 304.3 200 294.7 240 288.3C280 282 320 279 360 292.3C400 305.7 440 335.3 480 344.7C520 354 560 343 600 324.2C640 305.3 680 278.7 720 284.3C760 290 800 328 840 339C880 350 920 334 940 326L960 318L960 541L940 541C920 541 880 541 840 541C800 541 760 541 720 541C680 541 640 541 600 541C560 541 520 541 480 541C440 541 400 541 360 541C320 541 280 541 240 541C200 541 160 541 120 541C80 541 40 541 20 541L0 541Z" fill="#343434"></path><path d="M0 388L20 370.8C40 353.7 80 319.3 120 312.2C160 305 200 325 240 336.7C280 348.3 320 351.7 360 352.8C400 354 440 353 480 358.5C520 364 560 376 600 373.5C640 371 680 354 720 339C760 324 800 311 840 309.5C880 308 920 318 940 323L960 328L960 541L940 541C920 541 880 541 840 541C800 541 760 541 720 541C680 541 640 541 600 541C560 541 520 541 480 541C440 541 400 541 360 541C320 541 280 541 240 541C200 541 160 541 120 541C80 541 40 541 20 541L0 541Z" fill="#464646"></path><path d="M0 335L20 347.8C40 360.7 80 386.3 120 386.8C160 387.3 200 362.7 240 363C280 363.3 320 388.7 360 405.2C400 421.7 440 429.3 480 421.3C520 413.3 560 389.7 600 379.3C640 369 680 372 720 383.8C760 395.7 800 416.3 840 404.5C880 392.7 920 348.3 940 326.2L960 304L960 541L940 541C920 541 880 541 840 541C800 541 760 541 720 541C680 541 640 541 600 541C560 541 520 541 480 541C440 541 400 541 360 541C320 541 280 541 240 541C200 541 160 541 120 541C80 541 40 541 20 541L0 541Z" fill="#5a5a5a"></path><path d="M0 393L20 403.3C40 413.7 80 434.3 120 429.2C160 424 200 393 240 381.3C280 369.7 320 377.3 360 375.5C400 373.7 440 362.3 480 366.2C520 370 560 389 600 393C640 397 680 386 720 387.5C760 389 800 403 840 411.8C880 420.7 920 424.3 940 426.2L960 428L960 541L940 541C920 541 880 541 840 541C800 541 760 541 720 541C680 541 640 541 600 541C560 541 520 541 480 541C440 541 400 541 360 541C320 541 280 541 240 541C200 541 160 541 120 541C80 541 40 541 20 541L0 541Z" fill="#6e6e6e"></path><path d="M0 427L20 435.2C40 443.3 80 459.7 120 469.3C160 479 200 482 240 479.5C280 477 320 469 360 470.3C400 471.7 440 482.3 480 475.7C520 469 560 445 600 437.5C640 430 680 439 720 448.5C760 458 800 468 840 471.2C880 474.3 920 470.7 940 468.8L960 467L960 541L940 541C920 541 880 541 840 541C800 541 760 541 720 541C680 541 640 541 600 541C560 541 520 541 480 541C440 541 400 541 360 541C320 541 280 541 240 541C200 541 160 541 120 541C80 541 40 541 20 541L0 541Z" fill="#838383"></path><path d="M0 489L20 497.3C40 505.7 80 522.3 120 519C160 515.7 200 492.3 240 482C280 471.7 320 474.3 360 473.7C400 473 440 469 480 477.7C520 486.3 560 507.7 600 517.8C640 528 680 527 720 527.5C760 528 800 530 840 526.5C880 523 920 514 940 509.5L960 505L960 541L940 541C920 541 880 541 840 541C800 541 760 541 720 541C680 541 640 541 600 541C560 541 520 541 480 541C440 541 400 541 360 541C320 541 280 541 240 541C200 541 160 541 120 541C80 541 40 541 20 541L0 541Z" fill="#999999"></path></svg>